<svg width="22" height="14" viewBox="0 0 22 14" fill="none" xmlns="http://www.w3.org/2000/svg">
<path fill-rule="evenodd" clip-rule="evenodd" d="M21.1175 13.6562C20.9436 13.7543 20.7377 13.779 20.5456 13.7248C20.3534 13.6706 20.1908 13.542 20.0938 13.3675L13.5612 1.75H11.75V2.5C11.75 2.91421 11.4142 3.25 11 3.25C10.5858 3.25 10.25 2.91421 10.25 2.5V1.75H8.43875L1.90625 13.3675C1.70329 13.7299 1.24494 13.8592 0.8825 13.6562C0.520063 13.4533 0.390785 12.9949 0.59375 12.6325L6.7175 1.75H1.25C0.835786 1.75 0.5 1.41421 0.5 1C0.5 0.585786 0.835786 0.25 1.25 0.25H20.75C21.1642 0.25 21.5 0.585786 21.5 1C21.5 1.41421 21.1642 1.75 20.75 1.75H15.2825L21.4062 12.6325C21.5043 12.8064 21.529 13.0123 21.4748 13.2044C21.4206 13.3966 21.292 13.5592 21.1175 13.6562ZM11 5.5C10.5858 5.5 10.25 5.83579 10.25 6.25V7.75C10.25 8.16421 10.5858 8.5 11 8.5C11.4142 8.5 11.75 8.16421 11.75 7.75V6.25C11.75 5.83579 11.4142 5.5 11 5.5ZM11 10.75C10.5858 10.75 10.25 11.0858 10.25 11.5V13C10.25 13.4142 10.5858 13.75 11 13.75C11.4142 13.75 11.75 13.4142 11.75 13V11.5C11.75 11.0858 11.4142 10.75 11 10.75Z" fill="#0D1A12"/>
</svg>
