<svg width="20" height="16" viewBox="0 0 20 16" fill="none" xmlns="http://www.w3.org/2000/svg">
<path fill-rule="evenodd" clip-rule="evenodd" d="M19.125 0.5H1.125C0.710786 0.5 0.375 0.835786 0.375 1.25V14.75C0.375 15.1642 0.710786 15.5 1.125 15.5H19.125C19.5392 15.5 19.875 15.1642 19.875 14.75V1.25C19.875 0.835786 19.5392 0.5 19.125 0.5ZM6.375 9.5V6.5H13.875V9.5H6.375ZM1.875 9.5V6.5H4.875V9.5H1.875ZM15.375 6.5H18.375V9.5H15.375V6.5ZM18.375 5H10.875V2H18.375V5ZM9.375 2V5H1.875V2H9.375ZM1.875 11H9.375V14H1.875V11ZM10.875 14V11H18.375V14H10.875Z" fill="#0D1A12"/>
</svg>
