<svg width="24" height="18" viewBox="0 0 24 18" fill="none" xmlns="http://www.w3.org/2000/svg">
<path fill-rule="evenodd" clip-rule="evenodd" d="M23.2153 0.739687C23.1931 0.359893 22.8901 0.0568669 22.5103 0.0346875C17.6578 -0.246562 13.7616 1.22906 12.0872 3.99281C10.9809 5.82 10.9828 8.03906 12.0722 10.1559C11.4521 10.8941 10.999 11.7576 10.7437 12.6872L9.21844 11.1562C9.95156 9.62531 9.92344 8.02969 9.12469 6.70406C7.88719 4.66125 5.03062 3.56625 1.48406 3.77437C1.10427 3.79655 0.801242 4.09958 0.779063 4.47937C0.57 8.02594 1.66594 10.8825 3.70875 12.12C4.38287 12.5319 5.15752 12.7499 5.9475 12.75C6.71428 12.7406 7.46913 12.5589 8.15625 12.2184L10.5 14.5622V17.25C10.5 17.6642 10.8358 18 11.25 18C11.6642 18 12 17.6642 12 17.25V14.4853C11.9967 13.2922 12.4027 12.134 13.1503 11.2041C14.115 11.7082 15.1848 11.978 16.2731 11.9916C17.3253 11.995 18.358 11.7075 19.2572 11.1609C22.0209 9.48844 23.5003 5.59219 23.2153 0.739687ZM4.48219 10.8375C3.04406 9.96656 2.23031 7.905 2.25 5.25C4.905 5.2275 6.96656 6.04406 7.8375 7.48219C8.29219 8.23219 8.36625 9.10688 8.06812 10.0078L5.77969 7.71937C5.48481 7.43923 5.02038 7.44517 4.73278 7.73278C4.44517 8.02038 4.43923 8.48481 4.71938 8.77969L7.00781 11.0681C6.10687 11.3663 5.23312 11.2922 4.48219 10.8375ZM18.48 9.87938C17.2237 10.6397 15.7472 10.6978 14.2472 10.0669L19.2806 5.0325C19.5608 4.73763 19.5548 4.2732 19.2672 3.98559C18.9796 3.69799 18.5152 3.69204 18.2203 3.97219L13.1859 9C12.5522 7.5 12.6094 6.0225 13.3734 4.76719C14.6803 2.61094 17.7797 1.40906 21.7481 1.50187C21.8381 5.46937 20.6381 8.5725 18.48 9.87938Z" fill="#0D1A12"/>
</svg>
